<?xml version="1.0" encoding="utf-8"?>
<!-- Generator: Adobe Illustrator 23.0.3, SVG Export Plug-In . SVG Version: 6.00 Build 0)  -->
<svg version="1.1" id="Layer_1" xmlns="http://www.w3.org/2000/svg" xmlns:xlink="http://www.w3.org/1999/xlink" x="0px" y="0px"
	 viewBox="0 0 150 60" style="enable-background:new 0 0 150 60;" xml:space="preserve">
<style type="text/css">
	.st0{fill:#3C2F36;}
	.st1{fill:#6EAB1B;}
</style>
<path class="st0" d="M19.9,23.6c-0.6,0.8-1.2,1.5-1.4,1.7c-2.7,3.4-4,4.8-6.3,6.8c-1.2,1.1-1.8,1.5-2.1,1.5c-0.2,0-0.3-0.2-0.3-0.4
	c0-2.5,7.4-11.7,10.8-13.5c0,0.5-0.1,0.6-0.7,1.1c-0.6,0.6-0.8,0.8-0.8,1.2C19,22.7,19.3,23.1,19.9,23.6z M17.9,30.6
	c-2.1,6.4-3.3,9.7-5.4,14.2c-2.8,6-4.8,9.4-6.8,11.2c-0.7,0.6-1.7,1.3-2,1.3c-0.3,0-0.5-0.5-0.5-1.4c0-2.1,0.8-4.2,2.8-7.3
	c1.3-2.1,2.7-4,3.7-5c1.7-1.8,1.7-1.8,1.7-2.2c0-0.5-0.4-0.8-1-0.8c-1.1,0-2.8,1.4-5.4,4.4C1.9,48.3,0,52.5,0,55.7
	C0,58.4,1.3,60,3.4,60c2,0,3.7-1.1,6.1-3.8c2.6-3,5.4-8.1,7.1-12.6c2.4-6.3,4.7-12.7,7.1-19c0.1-0.2,0.1-0.4,0.3-0.6
	c0.6-1,0.6-1,0.6-1.4c0-0.4-0.3-0.7-1.2-1c0.8-1.2,1.2-2.4,1.2-3.5c0-1.1-1-2.1-2.1-2.1c-3,0-8.3,4.2-12.4,10.1
	c-2.4,3.4-3.6,6-3.6,7.9c0,1.8,1.1,2.9,3,2.9c1.5,0,2.7-0.6,5.1-2.7C15.8,33,16.5,32.3,17.9,30.6z"/>
<path class="st0" d="M29.1,26.7c1.8-2.8,2.1-3.1,2.7-3.9c1.6-2.1,3.5-3.7,4.1-3.7c0.2,0,0.5,0.3,0.5,0.6c0,0.6-0.7,2.3-1.4,3.1
	c-2.2,2.8-3.6,3.9-4.9,3.9H29.1z M27.4,29.6c0.9,0.3,1.4,0.3,1.9,0.3c2.5,0,5.3-1.8,7.8-5c1.3-1.8,2.3-4.1,2.3-5.5
	c0-2.1-1.2-3.4-3.3-3.4c-2.1,0-5.7,2.9-9.1,7.4c-2.6,3.5-3.8,6.2-3.8,8.6c0,2.6,2.3,4.9,4.7,4.9c3.6,0,8.8-3.5,8.8-6
	c0-0.5-0.5-1-0.9-1c-0.3,0-0.7,0.2-1,0.5c-2.7,2.5-4.2,3.3-6.4,3.3c-1.2,0-1.5-0.3-1.5-1.7C26.9,31.1,27,30.6,27.4,29.6z"/>
<path class="st0" d="M49.7,15.3c1.1-2.2,1.7-3.1,3.8-6.9c0.4-0.8,0.6-1.2,0.6-1.5c0-0.9-1.3-2.1-2.2-2.1c-0.5,0-1,0.3-1.2,0.7
	c-0.2,0.3-0.3,0.6-0.4,1c-0.1,0.1-0.1,0.2-0.2,0.4c-2,4.4-2.4,5-4.4,9.1c-0.4,0.1-0.4,0.1-1.9,0.2c0,0-0.5,0-1.1-0.1
	c-0.2,0-0.5,0-0.8,0c-1,0-1.7,0.7-1.7,1.9c0,1.1,0.7,1.5,2.8,1.5c0.3,0,0.5,0,1-0.1c-0.5,1.3-0.8,1.9-1.3,3.1
	c-2.9,6.4-3.5,8.3-3.5,11c0,2.4,0.8,3.6,2.3,3.6c0.6,0,1-0.5,1-1.2c0-0.1,0-0.1-0.1-0.2c-0.3-0.9-0.3-0.9-0.3-1.3
	c0-1.5,0.9-4.5,2.4-7.7c1.1-2.5,1.8-4,2.1-4.7c0.8-1.9,0.8-1.9,1.4-3.3c2.1-0.4,2.1-0.4,5.2-1.9c1.2-0.6,1.9-1.1,1.9-1.6
	c0-0.5-0.3-0.9-0.7-0.9c-0.2,0-0.5,0.1-1.2,0.3c-0.2,0.1-0.8,0.3-1.4,0.4L49.7,15.3L49.7,15.3z"/>
<path class="st0" d="M68.5,7.5c-0.8,0-1.6,0.9-1.6,1.8c0,1.1,1.3,2.2,2.7,2.2c1,0,1.7-0.6,1.7-1.6C71.3,8.7,70,7.5,68.5,7.5z
	 M63.6,16.1c-0.5,0.1-1,0.6-1.3,1.5c-0.1,0.4-0.8,1.7-1.8,3.6c-0.3,0.6-2.2,4.7-2.8,6.1c-1,2.5-1.6,4.7-1.6,6.3c0,1.9,1,3.3,2.4,3.3
	c0.5,0,1-0.4,1-0.8c0-0.1,0-0.2-0.1-0.3c-0.2-0.7-0.2-0.7-0.2-0.9c0-1.4,0.3-3.1,1-5c0.8-2.1,3.6-8.1,4.6-9.7
	c0.7-1.1,0.9-1.7,0.9-2.2C65.9,17.1,64.7,16,63.6,16.1L63.6,16.1z"/>
<path class="st0" d="M76.7,25l1.1-1.1c-1.5,5.2-1.7,6.2-1.7,8.7c0,2,0.4,3.3,1.4,4.2c0.7,0.6,1.6,1.1,2.2,1.1c0.7,0,1.3-0.4,1.3-0.9
	c0-0.3-0.2-0.7-0.4-1.1c-1-1.8-1-2-1-3.2c0-2.9,0.9-6.3,2.8-10.8c0.5-1.3,0.7-1.9,0.7-2.6c0-1.7-0.7-2.8-1.8-2.8
	c-0.6,0-0.9,0.2-3.2,2.8c-2.7,3-4.3,4.6-8.3,8.3c0.7-1.2,1.3-2.3,1.9-3.4c2.5-4.3,2.7-4.9,2.7-5.8c0-1.1-1.3-2.3-2.4-2.3
	c-0.7,0-1.3,0.5-1.3,1.2c-0.2,1.4-0.2,1.5-2.1,5.5c-4.6,9.2-5.2,10.6-5.2,11.4c0,1.5,0.9,2.8,2.1,2.8c0.7,0,1.1-0.3,1.8-1.5
	c0.2-0.3,0.3-0.6,0.6-0.9c0.3-0.6,0.6-0.9,3.5-3.9C71.2,30.8,76.7,25,76.7,25z"/>
<path class="st1" d="M96,39.1c-0.1,6.1,4.4,6.8,5.7,6.8h0.4h0.1l0.4-2.1c-1.3,0-4.3-0.3-4.3-5c0-0.8,0.1-1.7,0.4-2.8l1.2-5.8
	c0.1-0.5,0.1-1,0.1-1.5c0.1-1.9-0.6-3.3-1.4-4.2c-0.4-0.5-0.9-0.9-1.5-1.3v-0.1c0.9-0.3,1.7-0.6,2.4-1.2c1.2-1,2.6-2.7,3.3-5.6
	l1.1-5c1.5-7.4,5.8-7.7,7.1-7.7l0.4-2.1c-2.4,0-7.8,0.2-9.9,9.8l-0.9,4.4c-0.7,2.9-2.1,4.5-3.4,5.4c-0.8,0.5-1.6,0.8-2.5,1l-0.5,2.2
	c0.7,0.2,1.3,0.5,1.8,0.8c0.9,0.7,1.7,1.8,1.7,4c0,0.5-0.1,1.1-0.2,1.7l-1.1,5.1C96.2,37.1,96,38.2,96,39.1L96,39.1z"/>
<path class="st1" d="M148.3,7.1c0.1-6.1-4.3-6.9-5.6-6.9h-0.3c-0.1,0-0.1,0-0.1,0.1l-0.5,2.1c1.3,0,4.3,0.3,4.2,5.1
	c0,0.8-0.1,1.7-0.4,2.8l-1.2,5.8c-0.1,0.5-0.1,1-0.2,1.5c0,1.9,0.7,3.3,1.5,4.2c0.4,0.5,0.9,0.9,1.5,1.3v0.1
	c-0.9,0.3-1.7,0.6-2.4,1.2c-1.2,1-2.6,2.7-3.2,5.6l-1.1,5.1c-1.5,7.5-5.7,7.7-7,7.7l-0.4,2.1c2.3,0,7.7-0.3,9.7-9.8l0.9-4.4
	c0.6-2.9,2.1-4.6,3.4-5.4c0.7-0.5,1.5-0.9,2.4-1l0.5-2.2c-0.7-0.2-1.3-0.5-1.7-0.9c-0.9-0.7-1.7-1.8-1.7-4c0-0.5,0.1-1.1,0.2-1.7
	l1.1-5.1C148.1,9.1,148.3,8.1,148.3,7.1L148.3,7.1z"/>
<path class="st0" d="M114.9,31.1L116,26c1.5-6.6,1.9-8.1,3.5-14.4l-0.2-0.2l-6.4,0.1l-0.3,0.2c-1,5.2-1.4,7-2.6,12.6l-1.9,7.9
	l-1.2,5l0.2,0.2l6.4-0.1l0.2-0.2C113.7,37,114.9,31.1,114.9,31.1z"/>
<path class="st0" d="M130.1,29.7l1.6-7.4l1.5-6.2h2.2l3.6,0.1l0.3-0.3l1.1-4.3l-0.2-0.2l-6.2,0.1h-12.3l-0.3,0.2l-1.2,4.3l0.2,0.3
	l4.2-0.1h2.3l-1.9,8.4l-1.8,7.4l-1.3,5.3l0.2,0.2l6.2-0.1l0.2-0.2L130.1,29.7L130.1,29.7z"/>
</svg>
