<?xml version="1.0" encoding="utf-8"?>
<!-- Generator: Adobe Illustrator 23.0.2, SVG Export Plug-In . SVG Version: 6.00 Build 0)  -->
<svg version="1.1" id="Layer_1" xmlns:serif="http://www.serif.com/"
	 xmlns="http://www.w3.org/2000/svg" xmlns:xlink="http://www.w3.org/1999/xlink" x="0px" y="0px" viewBox="0 0 595.3 841.9"
	 style="enable-background:new 0 0 595.3 841.9;" xml:space="preserve">
<style type="text/css">
	.st0{fill-rule:evenodd;clip-rule:evenodd;fill:#B1E11C;}
</style>
<g transform="matrix(5.57342,0,0,5.57342,-1385.55,-2423.48)">
	<path class="st0" d="M262.2,530.7c-5.8-7.9-9.1-17.6-9.1-28.1c0-26.4,21.5-47.8,47.9-47.8c26.4,0,47.9,21.4,47.9,47.8
		c0,10.5-3.4,20.2-9.1,28.1h0.2c3.6,0,6.5,2.9,6.5,6.5v13.1c0,3.6-2.9,6.5-6.5,6.5H262c-3.6,0-6.5-2.9-6.5-6.5v-13.1
		c0-3.6,2.9-6.5,6.5-6.5H262.2z M337.6,535.3h-73.3c-2.4,0-4.3,1.9-4.3,4.3v8.5c0,2.4,1.9,4.3,4.3,4.3h73.3c2.4,0,4.3-1.9,4.3-4.3
		v-8.5C341.9,537.2,339.9,535.3,337.6,535.3z M335.3,546.4c0,0.5-0.1,0.9-0.2,1.3c-0.1,0.4-0.4,0.7-0.7,1c-0.3,0.3-0.8,0.5-1.4,0.6
		c-0.6,0.2-1.4,0.2-2.3,0.2s-1.7-0.1-2.3-0.2c-0.6-0.2-1.1-0.4-1.4-0.6c-0.3-0.3-0.6-0.6-0.7-1c-0.1-0.4-0.2-0.8-0.2-1.3v-5.2
		c0-0.5,0.1-0.9,0.2-1.3c0.1-0.4,0.4-0.7,0.7-1c0.3-0.3,0.8-0.5,1.4-0.6c0.6-0.2,1.4-0.2,2.3-0.2s1.7,0.1,2.3,0.2
		c0.6,0.2,1.1,0.4,1.4,0.6c0.3,0.3,0.6,0.6,0.7,1c0.1,0.4,0.2,0.8,0.2,1.3V546.4z M269.5,549.4h-2.4c-0.2,0-0.3,0-0.4-0.1
		c-0.1-0.1-0.1-0.2-0.1-0.4v-10c0-0.2,0-0.3,0.1-0.4c0.1-0.1,0.2-0.1,0.4-0.1h2.4c0.2,0,0.3,0,0.4,0.1c0.1,0.1,0.1,0.2,0.1,0.4v3.5
		h0.6l1.6-3.6c0.1-0.2,0.2-0.3,0.3-0.4c0.1-0.1,0.3-0.1,0.5-0.1h2.4c0.2,0,0.3,0,0.4,0.1c0.1,0.1,0.1,0.2,0,0.4l-1.6,3.6
		c0.6,0,1,0.2,1.4,0.6c0.3,0.4,0.5,0.9,0.5,1.5v4.3c0,0.2,0,0.3-0.1,0.4c-0.1,0.1-0.2,0.1-0.4,0.1h-2.4c-0.2,0-0.3,0-0.4-0.1
		c-0.1-0.1-0.1-0.2-0.1-0.4v-3c0-0.2,0-0.3-0.1-0.4c-0.1-0.1-0.2-0.1-0.4-0.1h-2v3.5c0,0.2,0,0.3-0.1,0.4
		C269.9,549.3,269.7,549.4,269.5,549.4z M323.6,549.4h-3.1c-0.2,0-0.3,0-0.4-0.1c-0.1-0.1-0.1-0.2-0.1-0.4v-3.1c0-0.2,0-0.3,0.1-0.4
		c0.1-0.1,0.2-0.1,0.4-0.1h3.1c0.2,0,0.3,0,0.4,0.1c0.1,0.1,0.1,0.2,0.1,0.4v3.1c0,0.2,0,0.3-0.1,0.4
		C323.9,549.3,323.8,549.4,323.6,549.4z M284.9,549.4h-6.6c-0.2,0-0.3,0-0.4-0.1c-0.1-0.1-0.1-0.2-0.1-0.4V547c0-0.2,0-0.3,0.1-0.4
		c0.1-0.1,0.2-0.1,0.4-0.1h1.5v-5.2h-1.5c-0.2,0-0.3,0-0.4-0.1s-0.1-0.2-0.1-0.4v-1.9c0-0.2,0-0.3,0.1-0.4c0.1-0.1,0.2-0.1,0.4-0.1
		h6.6c0.2,0,0.3,0,0.4,0.1c0.1,0.1,0.1,0.2,0.1,0.4v1.9c0,0.2,0,0.3-0.1,0.4c-0.1,0.1-0.2,0.1-0.4,0.1h-1.5v5.2h1.5
		c0.2,0,0.3,0,0.4,0.1c0.1,0.1,0.1,0.2,0.1,0.4v1.8c0,0.2,0,0.3-0.1,0.4C285.3,549.3,285.1,549.4,284.9,549.4z M290.3,549.4h-2.4
		c-0.2,0-0.3,0-0.4-0.1c-0.1-0.1-0.1-0.2-0.1-0.4v-10c0-0.2,0-0.3,0.1-0.4c0.1-0.1,0.2-0.1,0.4-0.1h6.9c0.2,0,0.3,0,0.4,0.1
		c0.1,0.1,0.1,0.2,0.1,0.4v1.8c0,0.2,0,0.3-0.1,0.4c-0.1,0.1-0.2,0.1-0.4,0.1h-3.9v1.6h2.7c0.2,0,0.3,0,0.4,0.1
		c0.1,0.1,0.1,0.2,0.1,0.4v1.8c0,0.2,0,0.3-0.1,0.4c-0.1,0.1-0.2,0.1-0.4,0.1h-2.7v3c0,0.2,0,0.3-0.1,0.4
		C290.7,549.3,290.5,549.4,290.3,549.4z M314.8,549.4h-2.5c-0.2,0-0.3,0-0.4-0.1c-0.1-0.1-0.1-0.2-0.1-0.4V546c0-0.5,0-0.9,0.1-1.2
		c0.1-0.3,0.2-0.6,0.4-0.8c0.2-0.2,0.4-0.4,0.7-0.6c0.3-0.1,0.7-0.3,1.1-0.4l1.2-0.3v-1.4h-4.2c-0.2,0-0.3,0-0.4-0.1
		c-0.1-0.1-0.1-0.2-0.1-0.4v-1.9c0-0.2,0-0.3,0.1-0.4c0.1-0.1,0.2-0.1,0.4-0.1h7.2c0.2,0,0.3,0,0.4,0.1c0.1,0.1,0.1,0.2,0.1,0.4v3.9
		c0,0.5,0,0.9-0.1,1.2c-0.1,0.3-0.2,0.6-0.4,0.8s-0.4,0.4-0.7,0.6c-0.3,0.1-0.7,0.3-1.1,0.4l-1.1,0.3v2.7c0,0.2,0,0.3-0.1,0.4
		C315.1,549.3,315,549.4,314.8,549.4z M308.4,549.4h-2.4c-0.2,0-0.3,0-0.4-0.1c-0.1-0.1-0.1-0.2-0.1-0.4v-2h-2.6
		c-1,0-1.7-0.2-2.1-0.6c-0.4-0.4-0.7-1.1-0.7-1.9v-5.4c0-0.2,0-0.3,0.1-0.4c0.1-0.1,0.2-0.1,0.4-0.1h2.4c0.2,0,0.3,0,0.4,0.1
		c0.1,0.1,0.1,0.2,0.1,0.4v4.2c0,0.2,0,0.3,0.1,0.4c0.1,0.1,0.2,0.1,0.3,0.1h1.4v-4.7c0-0.2,0-0.3,0.1-0.4c0.1-0.1,0.2-0.1,0.4-0.1
		h2.4c0.2,0,0.3,0,0.4,0.1c0.1,0.1,0.1,0.2,0.1,0.4v10c0,0.2,0,0.3-0.1,0.4C308.8,549.3,308.6,549.4,308.4,549.4z M329.4,545.9
		c0,0.2,0.1,0.4,0.2,0.5c0.1,0.1,0.5,0.2,1,0.2s0.9-0.1,1-0.2c0.1-0.1,0.2-0.3,0.2-0.5v-4.1c0-0.2-0.1-0.4-0.2-0.5
		c-0.1-0.1-0.5-0.2-1-0.2s-0.9,0.1-1,0.2c-0.1,0.1-0.2,0.3-0.2,0.5V545.9z M331.6,530.7c6.8-7.4,11-17.3,11-28.1
		c0-22.9-18.6-41.5-41.6-41.5c-23,0-41.6,18.6-41.6,41.5c0,10.8,4.2,20.7,11,28.1h4.7v-4.8h-0.8v-1.6h2.5v-4.9h-1.3v-0.8l0.3-0.3
		l-0.5-0.5c0,0,2.5-0.5,2.5-1.6c0-0.3,0-0.9,0-0.9l-0.7-0.3c0,0,0.9-0.2,0.9-0.4c0-0.3,0-0.4,0-0.4s-0.7-0.4-0.7-1.1
		c0-0.8,0.7-1.3,1.1-1.3c0-0.4,0-1.1,0-1.1s-0.3,0-0.3-0.5s0.5-0.8,0.7-0.8c0-0.3,0-0.7,0-0.7s-0.4,0.1-0.4-0.2
		c0-0.1,0.1-0.3,0.4-0.3c0-0.3,0-1.1,0-1.1l-0.2-0.1l0.2-0.2v-0.4c0,0-0.2,0-0.2-0.4c0-0.4,0.3-0.4,0.4-0.4c0.1,0,0.4,0,0.4,0.4
		c0,0.4-0.2,0.4-0.2,0.4v0.3l0.2,0.2l-0.2,0.2v1.1c0,0,0.3-0.1,0.3,0.3c0,0.3-0.3,0.3-0.3,0.3v0.7c0,0,0.7,0,0.7,0.8
		c0,0.2-0.1,0.6-0.4,0.6c0,0.2,0,1.1,0,1.1s1.2,0,1.2,1.3c0,0.5-0.4,1.1-0.7,1.1c0,0.1,0,0.4,0,0.4s-0.1,0.3,1,0.4
		c-0.2,0-0.8,0.4-0.8,0.4v0.9c0,0-0.1,1,2.2,1.3c0,0.4,0,2.1,0,2.1l-1,0.2l0.3,0.3v4.1h2v0.5l0.2,0.2v0.5l-0.5,0.8v2.8
		c0,0,3.5-3.2,3.3-8.8c-0.5-0.4-1.5-0.7-1.5-0.7s1.5-0.2,1.5-4.1c0-3.9-0.2-9.8,2.5-12.6c0-1.4,0-2.8,0-2.8h2.3c0,0,2.4-2.8,3.9-3.6
		c0-1.1,0-3.1,0-3.1l-0.7-0.7l1-0.5v-1.6l1-0.3v-9l-1.1-0.8c0,0,1.6-1.2,1.6-1.8c0-0.6,0-2,0-2s0.2-1.4,2.3-1.8
		c0.1-0.5-0.1-1.3-0.7-1.3c0.9-0.4,1.2-0.3,1.1-1.3c0-0.9,0.1-1.7,0.8-1.8v-1.2c-0.2-0.1-0.5-0.3-0.5-0.8c0-0.6,0.2-0.8,0.6-1v-2.3
		h-0.9v-0.2h0.9v-0.6h0.2v0.6h0.9v0.2H301v2.3c0.4,0.1,0.6,0.3,0.6,1c0,0.4-0.3,0.7-0.5,0.8v1.2c0.8,0.1,0.9,0.9,0.8,1.8
		c0,1,0.2,0.9,1.1,1.3c-0.6,0-0.8,0.8-0.7,1.3c2.1,0.4,2.3,1.8,2.3,1.8s0,1.3,0,2c0,0.6,1.6,1.8,1.6,1.8l-1.1,0.8v9l1,0.3v1.6l1,0.5
		l-0.7,0.7c0,0,0,2,0,3.1c1.5,0.8,3.9,3.6,3.9,3.6h2.3c0,0,0,1.3,0,2.8c2.6,2.8,2.4,8.7,2.5,12.6c0,3.9,1.5,4.1,1.5,4.1
		s-0.9,0.2-1.5,0.7c-0.3,5.6,3.3,8.8,3.3,8.8v-2.8l-0.5-0.8V525l0.2-0.2v-0.5h2v-4.1l0.3-0.3l-1-0.2c0,0,0-1.7,0-2.1
		c2.3-0.3,2.2-1.3,2.2-1.3v-0.9c0,0-0.6-0.4-0.8-0.4c1.1-0.2,1-0.4,1-0.4s0-0.3,0-0.4c-0.3,0-0.7-0.6-0.7-1.1c0-1.3,1.2-1.3,1.2-1.3
		s0-0.9,0-1.1c-0.4,0-0.4-0.4-0.4-0.6c0-0.7,0.7-0.8,0.7-0.8v-0.7c0,0-0.3,0.1-0.3-0.3c0-0.3,0.3-0.3,0.3-0.3v-1.1l-0.2-0.2l0.2-0.2
		v-0.3c0,0-0.2,0-0.2-0.4c0-0.4,0.4-0.4,0.4-0.4c0.1,0,0.4,0,0.4,0.4c0,0.4-0.2,0.4-0.2,0.4v0.4l0.2,0.2l-0.2,0.1c0,0,0,0.8,0,1.1
		c0.3,0,0.4,0.2,0.4,0.3c0,0.3-0.4,0.2-0.4,0.2s0,0.4,0,0.7c0.2,0,0.7,0.3,0.7,0.8s-0.3,0.5-0.3,0.5s0,0.7,0,1.1
		c0.4,0,1.2,0.5,1.1,1.3c0,0.8-0.7,1.1-0.7,1.1s0,0.2,0,0.4c0,0.3,0.9,0.4,0.9,0.4l-0.7,0.3c0,0,0,0.6,0,0.9c0,1,2.5,1.6,2.5,1.6
		l-0.5,0.5l0.3,0.3v0.8h-1.3v4.9h2.5v1.6h-0.8v4.8H331.6z"/>
</g>
</svg>
